<svg aria-label="Instagram Icon" viewBox="-237 239 24 24"><path d="m-225 239c-3.3 0-3.7 0-4.9.1-1.3.1-2.1.3-2.9.6s-1.5.7-2.1 1.4c-.7.7-1.1 1.3-1.4 2.1s-.5 1.6-.6 2.9-.1 1.7-.1 4.9 0 3.7.1 4.9c.1 1.3.3 2.1.6 2.9s.7 1.5 1.4 2.1c.7.7 1.3 1.1 2.1 1.4s1.6.5 2.9.6 1.7.1 4.9.1 3.7 0 4.9-.1c1.3-.1 2.1-.3 2.9-.6s1.5-.7 2.1-1.4c.7-.7 1.1-1.3 1.4-2.1s.5-1.6.6-2.9.1-1.7.1-4.9c0-3.3 0-3.7-.1-4.9-.1-1.3-.3-2.1-.6-2.9s-.7-1.5-1.4-2.1c-.7-.7-1.3-1.1-2.1-1.4s-1.6-.5-2.9-.6c-1.2-.1-1.6-.1-4.9-.1zm0 2.2c3.2 0 3.6 0 4.9.1 1.2.1 1.8.2 2.2.4.6.2 1 .5 1.4.9s.7.8.9 1.4c.2.4.4 1.1.4 2.2.1 1.3.1 1.6.1 4.9s0 3.6-.1 4.9c-.1 1.2-.3 1.8-.4 2.2-.2.6-.5 1-.9 1.4s-.8.7-1.4.9c-.4.2-1.1.4-2.2.4-1.3.1-1.6.1-4.9.1-3.2 0-3.6 0-4.9-.1-1.2-.1-1.8-.3-2.2-.4-.6-.2-1-.5-1.4-.9s-.7-.8-.9-1.4c-.2-.4-.4-1.1-.4-2.2 0-1.3-.1-1.6-.1-4.8s0-3.6.1-4.9c.1-1.2.3-1.8.4-2.2.2-.6.5-1 .9-1.4s.8-.7 1.4-.9c.4-.2 1.1-.4 2.2-.4 1.3-.3 1.6-.3 4.9-.2 0-.1 0 0 0 0zm0 3.6c-3.4 0-6.2 2.8-6.2 6.2s2.8 6.2 6.2 6.2 6.2-2.8 6.2-6.2-2.8-6.2-6.2-6.2zm0 10.2c-2.2 0-4-1.8-4-4s1.8-4 4-4 4 1.8 4 4-1.8 4-4 4zm7.8-10.4c0 .8-.6 1.4-1.4 1.4s-1.4-.6-1.4-1.4.6-1.4 1.4-1.4 1.4.6 1.4 1.4z" fill="#a6a6aa"/></svg>