<svg aria-label="Fancy Quote Marks" fill="none" height="32" width="27" xmlns="http://www.w3.org/2000/svg"><path d="m4.21 31.44c-1.4-2.44-2.36-5.04-2.88-7.8-.48-2.8-.56-5.58-.24-8.34.36-2.76 1.12-5.4 2.28-7.92 1.2-2.56 2.8-4.8 4.8-6.72l1.68 1.08c.32.24.46.52.42.84s-.16.58-.36.78a18.941 18.941 0 0 0 -2.94 5.64c-.68 2.08-1.1 4.2-1.26 6.36-.12 2.16.04 4.3.48 6.42s1.18 4.06 2.22 5.82c.64 1.12.46 1.9-.54 2.34zm16.14 0c-1.4-2.44-2.36-5.04-2.88-7.8-.48-2.8-.56-5.58-.24-8.34.36-2.76 1.12-5.4 2.28-7.92 1.2-2.56 2.8-4.8 4.8-6.72l1.68 1.08c.32.24.46.52.42.84s-.16.58-.36.78a18.941 18.941 0 0 0 -2.94 5.64c-.68 2.08-1.1 4.2-1.26 6.36-.12 2.16.04 4.3.48 6.42s1.18 4.06 2.22 5.82c.64 1.12.46 1.9-.54 2.34z" fill="#000000"/></svg>